<svg width="21" height="21" viewBox="0 0 21 21" fill="none" xmlns="http://www.w3.org/2000/svg">
<g clip-path="url(#clip0_6740_2769)">
<path d="M6.90391 7.38892L5.50391 8.78892L10.5039 13.7889L20.5039 3.78892L19.1039 2.38892L10.5039 10.9889L6.90391 7.38892Z" fill="#7ABB42"/>
<path d="M9.50391 17.3889C5.60391 17.3889 2.50391 14.2889 2.50391 10.3889C2.50391 6.48892 5.60391 3.38892 9.50391 3.38892C10.7039 3.38892 11.9039 3.68892 13.0039 4.28892L14.0039 2.58892C12.6039 1.78892 11.1039 1.38892 9.50391 1.38892C4.50391 1.38892 0.503906 5.38892 0.503906 10.3889C0.503906 15.3889 4.50391 19.3889 9.50391 19.3889C14.5039 19.3889 18.5039 15.3889 18.5039 10.3889H16.5039C16.5039 14.2889 13.4039 17.3889 9.50391 17.3889Z" fill="#7ABB42"/>
</g>
<defs>
<clipPath id="clip0_6740_2769">
<rect width="20" height="20" fill="white" transform="translate(0.503906 0.388916)"/>
</clipPath>
</defs>
</svg>
