<svg width="38" height="25" viewBox="0 0 38 25" fill="none" xmlns="http://www.w3.org/2000/svg">
<g clip-path="url(#clip0_6701_2104)">
<path opacity="0.07" d="M35 0.777344H3C1.3 0.777344 0 2.07734 0 3.77734V21.7773C0 23.4773 1.4 24.7773 3 24.7773H35C36.7 24.7773 38 23.4773 38 21.7773V3.77734C38 2.07734 36.6 0.777344 35 0.777344Z" fill="black"/>
<path d="M35 1.77734C36.1 1.77734 37 2.67734 37 3.77734V21.7773C37 22.8773 36.1 23.7773 35 23.7773H3C1.9 23.7773 1 22.8773 1 21.7773V3.77734C1 2.67734 1.9 1.77734 3 1.77734H35Z" fill="white"/>
<path d="M15 19.7773C18.866 19.7773 22 16.6433 22 12.7773C22 8.91135 18.866 5.77734 15 5.77734C11.134 5.77734 8 8.91135 8 12.7773C8 16.6433 11.134 19.7773 15 19.7773Z" fill="#EB001B"/>
<path d="M23 19.7773C26.866 19.7773 30 16.6433 30 12.7773C30 8.91135 26.866 5.77734 23 5.77734C19.134 5.77734 16 8.91135 16 12.7773C16 16.6433 19.134 19.7773 23 19.7773Z" fill="#F79E1B"/>
<path d="M22 12.7771C22 10.3771 20.8 8.27715 19 7.07715C17.2 8.37715 16 10.4771 16 12.7771C16 15.0771 17.2 17.2771 19 18.4771C20.8 17.2771 22 15.1771 22 12.7771Z" fill="#FF5F00"/>
</g>
<defs>
<clipPath id="clip0_6701_2104">
<rect width="38" height="24" fill="white" transform="translate(0 0.777344)"/>
</clipPath>
</defs>
</svg>
