<svg width="38" height="25" viewBox="0 0 38 25" fill="none" xmlns="http://www.w3.org/2000/svg">
<g clip-path="url(#clip0_6701_2080)">
<path opacity="0.07" d="M35 0.777344H3C1.3 0.777344 0 2.07734 0 3.77734V21.7773C0 23.4773 1.4 24.7773 3 24.7773H35C36.7 24.7773 38 23.4773 38 21.7773V3.77734C38 2.07734 36.6 0.777344 35 0.777344Z" fill="black"/>
<path d="M35 1.77734C36.1 1.77734 37 2.67734 37 3.77734V21.7773C37 22.8773 36.1 23.7773 35 23.7773H3C1.9 23.7773 1 22.8773 1 21.7773V3.77734C1 2.67734 1.9 1.77734 3 1.77734H35Z" fill="white"/>
<path d="M3.57 7.93738H2V13.4374H3.57C4.4 13.4374 5 13.2374 5.53 12.8074C6.16 12.2874 6.53 11.5074 6.53 10.6974C6.52 9.06738 5.31 7.93738 3.57 7.93738ZM4.83 12.0774C4.49 12.3774 4.06 12.5174 3.36 12.5174H3.07V8.87738H3.36C4.05 8.87738 4.47 8.99738 4.83 9.31738C5.2 9.64738 5.42 10.1574 5.42 10.6874C5.42 11.2174 5.2 11.7474 4.83 12.0774ZM7.02 7.93738H8.09V13.4374H7.02V7.93738ZM10.71 10.0474C10.07 9.80738 9.88 9.64738 9.88 9.35738C9.88 9.00738 10.22 8.74738 10.68 8.74738C11 8.74738 11.27 8.87738 11.54 9.19738L12.1 8.46738C11.64 8.06738 11.09 7.85738 10.48 7.85738C9.51 7.85738 8.76 8.53738 8.76 9.43738C8.76 10.1974 9.11 10.5874 10.11 10.9474C10.53 11.0974 10.74 11.1974 10.85 11.2574C11.06 11.3974 11.17 11.5974 11.17 11.8274C11.17 12.2774 10.82 12.6074 10.34 12.6074C9.83 12.6074 9.42 12.3474 9.17 11.8774L8.48 12.5474C8.97 13.2774 9.57 13.5974 10.38 13.5974C11.49 13.5974 12.28 12.8574 12.28 11.7874C12.3 10.8974 11.93 10.4974 10.71 10.0474ZM12.63 10.6974C12.63 12.3174 13.9 13.5674 15.53 13.5674C15.99 13.5674 16.39 13.4774 16.87 13.2474V11.9874C16.44 12.4174 16.06 12.5874 15.58 12.5874C14.5 12.5874 13.73 11.8074 13.73 10.6874C13.73 9.62738 14.52 8.79738 15.53 8.79738C16.04 8.79738 16.43 8.97738 16.87 9.41738V8.15738C16.4 7.91738 16.01 7.81738 15.55 7.81738C13.94 7.81738 12.63 9.09738 12.63 10.6974ZM25.39 11.6374L23.92 7.93738H22.75L25.08 13.5774H25.66L28.03 7.93738H26.87L25.39 11.6374ZM28.52 13.4374H31.56V12.5074H29.59V11.0274H31.49V10.0974H29.59V8.87738H31.56V7.93738H28.52V13.4374ZM35.81 9.56738C35.81 8.53738 35.1 7.94738 33.86 7.94738H32.27V13.4474H33.34V11.2374H33.48L34.96 13.4474H36.28L34.55 11.1274C35.36 10.9574 35.81 10.4074 35.81 9.56738ZM33.65 10.4774H33.34V8.80738H33.67C34.34 8.80738 34.7 9.08738 34.7 9.62738C34.7 10.1774 34.34 10.4774 33.65 10.4774Z" fill="#231F20"/>
<path d="M20.1595 13.6374C20.9369 13.6374 21.6824 13.3286 22.232 12.7789C22.7817 12.2293 23.0905 11.4837 23.0905 10.7064C23.0905 9.92904 22.7817 9.18353 22.232 8.63386C21.6824 8.08419 20.9369 7.77539 20.1595 7.77539C19.3822 7.77539 18.6367 8.08419 18.087 8.63386C17.5373 9.18353 17.2285 9.92904 17.2285 10.7064C17.2285 11.4837 17.5373 12.2293 18.087 12.7789C18.6367 13.3286 19.3822 13.6374 20.1595 13.6374Z" fill="url(#paint0_linear_6701_2080)"/>
<path opacity="0.65" d="M20.1595 13.6374C20.9369 13.6374 21.6824 13.3286 22.232 12.7789C22.7817 12.2293 23.0905 11.4837 23.0905 10.7064C23.0905 9.92904 22.7817 9.18353 22.232 8.63386C21.6824 8.08419 20.9369 7.77539 20.1595 7.77539C19.3822 7.77539 18.6367 8.08419 18.087 8.63386C17.5373 9.18353 17.2285 9.92904 17.2285 10.7064C17.2285 11.4837 17.5373 12.2293 18.087 12.7789C18.6367 13.3286 19.3822 13.6374 20.1595 13.6374Z" fill="url(#paint1_linear_6701_2080)"/>
<path d="M36.5705 8.2833C36.5705 8.1833 36.5005 8.1333 36.3905 8.1333H36.2305V8.6133H36.3505V8.4233L36.4905 8.6133H36.6305L36.4705 8.4133C36.5305 8.4033 36.5705 8.3533 36.5705 8.2833ZM36.3705 8.3533H36.3505V8.2233H36.3705C36.4305 8.2233 36.4605 8.2433 36.4605 8.2833C36.4605 8.3333 36.4305 8.3533 36.3705 8.3533Z" fill="#231F20"/>
<path d="M36.4102 7.95312C36.1802 7.95312 35.9902 8.14313 35.9902 8.37313C35.9902 8.60313 36.1802 8.79312 36.4102 8.79312C36.6402 8.79312 36.8302 8.60313 36.8302 8.37313C36.8302 8.14313 36.6402 7.95312 36.4102 7.95312ZM36.4102 8.72312C36.2302 8.72312 36.0702 8.57313 36.0702 8.37313C36.0702 8.18313 36.2202 8.02312 36.4102 8.02312C36.5902 8.02312 36.7402 8.18313 36.7402 8.37313C36.7402 8.56313 36.5902 8.72312 36.4102 8.72312Z" fill="#231F20"/>
<path d="M36.9996 13.7612C36.9996 13.7612 27.0896 20.6502 8.97559 23.7772H34.9986C35.5263 23.7772 36.0326 23.5687 36.4072 23.1971C36.7818 22.8255 36.9944 22.3209 36.9986 21.7932L37.0226 18.7732L36.9996 13.7612Z" fill="#F48120"/>
</g>
<defs>
<linearGradient id="paint0_linear_6701_2080" x1="21.6565" y1="13.0524" x2="19.6315" y2="9.88139" gradientUnits="userSpaceOnUse">
<stop stop-color="#F89F20"/>
<stop offset="0.25" stop-color="#F79A20"/>
<stop offset="0.533" stop-color="#F68D20"/>
<stop offset="0.62" stop-color="#F58720"/>
<stop offset="0.723" stop-color="#F48120"/>
<stop offset="1" stop-color="#F37521"/>
</linearGradient>
<linearGradient id="paint1_linear_6701_2080" x1="21.3375" y1="13.0094" x2="18.3775" y2="7.22339" gradientUnits="userSpaceOnUse">
<stop stop-color="#F58720"/>
<stop offset="0.359" stop-color="#E16F27"/>
<stop offset="0.703" stop-color="#D4602C"/>
<stop offset="0.982" stop-color="#D05B2E"/>
</linearGradient>
<clipPath id="clip0_6701_2080">
<rect width="38" height="24" fill="white" transform="translate(0 0.777344)"/>
</clipPath>
</defs>
</svg>
