<svg width="51" height="50" viewBox="0 0 51 50" fill="none" xmlns="http://www.w3.org/2000/svg">
<g clip-path="url(#clip0_6758_2569)">
<path d="M50.3073 29.8708C49.6445 28.1699 46.864 26.5515 43.5484 25.9357C41.1621 25.4907 35.1035 25.0167 30.4192 30.1524C27.2689 33.607 26.5198 38.1692 28.5981 41.2464C28.6266 41.2887 28.6623 41.3253 28.6916 41.367C24.7465 43.3133 20.1589 43.807 15.8196 42.6337C18.0823 41.0039 18.7574 39.329 18.8916 38.1129C19.0972 36.2523 18.1622 34.7466 17.2986 34.0219C16.2763 33.1639 14.9565 33.0719 13.8966 32.9987C12.773 32.9217 12.22 32.8429 12.0107 32.4542C11.8258 32.1144 11.8643 31.9661 12.16 31.2958C12.5495 30.4134 13.1381 29.0804 12.3965 26.7918C12.1102 25.9075 12.3759 25.5048 12.8161 24.8374C13.263 24.1605 13.876 23.234 13.5822 21.8146C13.4301 21.0787 12.9344 20.0733 11.4409 19.4631C9.24918 18.5667 5.84139 18.9275 2.96624 20.2099C3.41534 18.5675 4.09546 16.9779 5.00882 15.4846C8.59753 9.59603 15.0128 6.46271 21.46 6.75502C21.1897 7.92134 21.6887 9.12753 22.0871 10.0898C22.3997 10.8474 22.7245 11.6303 22.6221 12.172C22.5217 12.7004 21.9218 13.1492 21.2863 13.6242C20.402 14.2869 19.3009 15.1102 19.2831 16.5361C19.2737 17.273 19.4915 17.8719 19.9289 18.3169C20.7616 19.1618 22.1209 19.1646 23.4351 19.1674C24.1645 19.1693 24.9183 19.1712 25.5322 19.3129C26.1067 19.4387 26.5048 19.9541 26.9685 20.5502C27.5111 21.2485 28.1269 22.0399 29.167 22.1882C29.366 22.2164 29.5538 22.2295 29.7303 22.2295C31.3054 22.2295 32.0264 21.1734 32.6159 20.307C32.9557 19.8076 33.3087 19.2913 33.84 18.8858C33.84 18.8848 33.84 18.8848 33.84 18.8848C34.2268 18.5882 34.942 18.4389 35.633 18.2944C36.217 18.1722 36.8402 18.0372 37.3901 17.7876C38.0141 19.2424 38.4573 20.7859 38.6892 22.3909C38.7673 22.9144 39.2517 23.2816 39.7752 23.2035C40.2986 23.1253 40.6658 22.6409 40.5877 22.1175C39.7283 16.1408 36.2751 10.9063 31.1266 7.76564C21.6107 1.96085 9.16512 4.97653 3.36032 14.4845C0.555589 19.0862 -0.296013 24.5082 0.977456 29.7505C2.2431 34.9928 5.47756 39.4304 10.0792 42.2429C13.3606 44.2352 16.9856 45.1883 20.5716 45.1883C23.859 45.1883 27.1109 44.381 30.0217 42.8511C31.6196 44.2452 33.7356 45.0539 35.8714 45.0539C36.245 45.0539 36.6186 45.0294 36.9904 44.9788C39.2471 44.6709 43.3813 43.1182 45.7187 36.1547C46.7795 32.9968 48.3997 32.1238 49.2709 31.6563C49.7365 31.4066 50.7034 30.8846 50.3073 29.8708ZM35.2387 16.4122C34.3807 16.5925 33.4063 16.7961 32.6722 17.3575C31.895 17.9517 31.4143 18.6577 31.0276 19.2247C30.3948 20.155 30.1977 20.3962 29.4373 20.2845C29.167 20.246 28.8215 19.801 28.4874 19.3702C27.9128 18.6314 27.1975 17.7105 25.9547 17.4373C25.1398 17.2496 24.2753 17.2477 23.4398 17.2449C22.6494 17.243 21.568 17.2411 21.2985 16.9679C21.2188 16.8863 21.2038 16.7013 21.2056 16.5605C21.2112 16.1137 21.675 15.7354 22.4382 15.1637C23.2558 14.5526 24.2725 13.7922 24.5109 12.5287C24.7193 11.4247 24.264 10.3246 23.8632 9.35485C23.3613 8.14227 23.147 7.47874 23.4344 6.95364C25.738 7.31217 28.0092 8.11757 30.1187 9.4063C32.8374 11.0639 35.028 13.3669 36.5415 16.0679C36.1886 16.2133 35.6795 16.3207 35.2387 16.4122ZM2.50042 22.5966C5.27815 20.8984 8.92321 20.5079 10.7134 21.2429C11.2841 21.4757 11.6155 21.7987 11.699 22.2033C11.8258 22.8134 11.6305 23.1448 11.2118 23.7785C10.6993 24.5557 9.99621 25.6202 10.5679 27.3851C11.0832 28.9753 10.7519 29.7244 10.4017 30.5186C10.076 31.2564 9.67139 32.1726 10.3191 33.3704C11.0551 34.7297 12.558 34.833 13.7643 34.9174C14.6673 34.9794 15.5197 35.0376 16.0632 35.4939C16.465 35.8318 17.1118 36.7198 16.9813 37.9027C16.8274 39.2954 15.6244 40.6486 13.4935 41.8313C12.6739 41.4847 11.8688 41.0791 11.087 40.6023C6.9151 38.0553 3.99312 34.0474 2.84468 29.2974C2.31705 27.1186 2.19832 24.9059 2.46588 22.7458C2.47943 22.696 2.48635 22.6464 2.50042 22.5966ZM43.8976 35.5426C42.4088 39.9734 39.8648 42.647 36.7332 43.0731C34.8364 43.3282 32.8314 42.6912 31.3735 41.4687C33.1002 38.0912 35.2296 35.4703 37.7207 33.6952C38.1525 33.3873 38.2539 32.7865 37.946 32.3547C37.6381 31.9229 37.0373 31.8234 36.6055 32.1294C34.0354 33.9609 31.8274 36.5689 30.0239 39.892C28.6988 37.5793 29.4268 34.0924 31.8386 31.4479C34.713 28.2975 38.2051 27.601 40.7247 27.601C41.7422 27.601 42.6021 27.7155 43.1973 27.8263C45.6248 28.2769 47.4141 29.2813 48.1651 30.0679C47.0836 30.6612 45.1217 31.8947 43.8976 35.5426Z" fill="#000309"/>
</g>
<defs>
<clipPath id="clip0_6758_2569">
<rect width="50" height="50" fill="white" transform="translate(0.400391)"/>
</clipPath>
</defs>
</svg>
