<svg width="52" height="52" viewBox="0 0 52 52" fill="none" xmlns="http://www.w3.org/2000/svg">
<path d="M43.6777 8.32231C38.9558 3.60041 32.6778 0.999939 26 0.999939C19.3223 0.999939 13.0442 3.60041 8.32232 8.32231C3.60047 13.0442 1 19.3222 1 26C1 32.6777 3.60047 38.9558 8.32232 43.6777C13.0442 48.3996 19.3223 51 26 51C32.6778 51 38.9558 48.3996 43.6777 43.6777C48.3996 38.9558 51 32.6777 51 26C51 19.3222 48.3996 13.0442 43.6777 8.32231ZM26 49.5972C12.9885 49.5972 2.40281 39.0115 2.40281 26C2.40281 19.4899 5.05279 13.5873 9.33058 9.31374L17.3567 17.3399C17.4937 17.4769 17.6732 17.5453 17.8527 17.5453C18.0321 17.5453 18.2117 17.4769 18.3486 17.3399C18.6226 17.066 18.6226 16.6219 18.3486 16.348L10.3533 8.35265C14.521 4.65329 20.0022 2.40275 26 2.40275C39.0116 2.40275 49.5972 12.9884 49.5972 26C49.5972 31.9978 47.3467 37.479 43.6473 41.6467L38.3553 36.3544C38.0814 36.0807 37.6373 36.0805 37.3632 36.3544C37.0894 36.6284 37.0894 37.0725 37.3632 37.3464L42.6862 42.6695C38.4127 46.9473 32.51 49.5972 26 49.5972Z" fill="#000309" stroke="black" stroke-width="0.3"/>
<path d="M37.5947 30.2797C37.5908 29.916 37.3097 29.6156 36.947 29.5877C36.9371 29.587 36.7006 29.5692 36.3115 29.5692C34.8531 29.5692 31.1936 29.8195 28.7168 32.1378C27.7998 32.996 27.1551 34.0303 26.7017 35.0672V29.8997C26.7661 29.9008 26.8351 29.9017 26.912 29.9017H26.9121C28.3707 29.9017 32.03 29.6513 34.5066 27.333C37.6131 24.4254 37.5969 19.4976 37.5947 19.2893C37.5908 18.9256 37.3097 18.6252 36.947 18.5973C36.9371 18.5966 36.7007 18.5788 36.3116 18.5788C34.8532 18.5788 31.1936 18.8291 28.7168 21.1474C27.7998 22.0056 27.1551 23.0399 26.7017 24.0768V21.0976C27.3174 20.481 30.2965 17.2925 30.236 13.3939C30.17 9.13936 26.5094 5.84038 26.3536 5.70201C26.0818 5.46056 25.6704 5.46697 25.406 5.71674C25.2546 5.85985 21.6983 9.27102 21.7644 13.5255C21.8193 17.0593 24.3524 19.9319 25.2989 20.8837V24.0768C24.8454 23.0399 24.2007 22.0056 23.2837 21.1474C20.8069 18.8291 17.1474 18.5788 15.689 18.5788C15.2999 18.5788 15.0634 18.5966 15.0535 18.5973C14.6909 18.6252 14.4098 18.9256 14.4059 19.2893C14.4037 19.4976 14.3874 24.4254 17.4939 27.333C19.9707 29.6514 23.6301 29.9017 25.0885 29.9017C25.1654 29.9017 25.2344 29.9008 25.2989 29.8997V35.0672C24.8454 34.0303 24.2007 32.996 23.2837 32.1378C20.8069 29.8195 17.1475 29.5692 15.6891 29.5692C15.3 29.5692 15.0634 29.587 15.0535 29.5877C14.6909 29.6156 14.4098 29.916 14.4059 30.2797C14.4037 30.488 14.3874 35.4157 17.4939 38.3234C19.9707 40.6417 23.6301 40.892 25.0885 40.892C25.1654 40.892 25.2344 40.8912 25.2989 40.8901V45.7736C25.2989 46.1609 25.6129 46.475 26.0003 46.475C26.3877 46.475 26.7017 46.1609 26.7017 45.7736V40.8901C26.7661 40.8912 26.8351 40.892 26.912 40.892H26.9121C28.3707 40.892 32.03 40.6416 34.5066 38.3234C37.6131 35.4158 37.5969 30.488 37.5947 30.2797ZM29.6753 22.1715C31.7082 20.2688 34.7799 20 36.1589 19.9825C36.0493 21.3378 35.5774 24.4094 33.548 26.3089C31.5144 28.2124 28.4414 28.4807 27.0632 28.4979C27.1704 27.145 27.6382 24.0783 29.6753 22.1715ZM18.4525 26.3089C16.4229 24.4092 15.9511 21.3373 15.8416 19.9825C17.2206 20 20.2923 20.2688 22.3251 22.1715C24.3547 24.0712 24.8265 27.1431 24.936 28.4979C23.5571 28.4805 20.4855 28.2118 18.4525 26.3089ZM18.4525 37.2993C16.4229 35.3996 15.9511 32.3277 15.8416 30.9729C17.2205 30.9904 20.2922 31.2591 22.3251 33.1619C24.3547 35.0616 24.8265 38.1335 24.936 39.4882C23.5571 39.4708 20.4855 39.2021 18.4525 37.2993ZM25.9044 7.23139C26.8348 8.22058 28.7901 10.6268 28.8334 13.4157C28.8766 16.194 26.9963 18.6661 26.097 19.687C25.1664 18.6945 23.2102 16.282 23.167 13.5037C23.1239 10.7244 25.0057 8.25135 25.9044 7.23139ZM33.548 37.2993C31.5144 39.2028 28.4414 39.471 27.0632 39.4882C27.1704 38.1353 27.6382 35.0686 29.6753 33.1619C31.7083 31.2591 34.78 30.9904 36.1589 30.9729C36.0493 32.3282 35.5774 35.3998 33.548 37.2993Z" fill="#000309" stroke="black" stroke-width="0.3"/>
</svg>
