<svg width="38" height="25" viewBox="0 0 38 25" fill="none" xmlns="http://www.w3.org/2000/svg">
<g clip-path="url(#clip0_6701_2096)">
<path opacity="0.07" d="M35 0.777344H3C1.3 0.777344 0 2.07734 0 3.77734V21.7773C0 23.4773 1.4 24.7773 3 24.7773H35C36.7 24.7773 38 23.4773 38 21.7773V3.77734C38 2.07734 36.6 0.777344 35 0.777344Z" fill="black"/>
<path d="M35 1.77734C36.1 1.77734 37 2.67734 37 3.77734V21.7773C37 22.8773 36.1 23.7773 35 23.7773H3C1.9 23.7773 1 22.8773 1 21.7773V3.77734C1 2.67734 1.9 1.77734 3 1.77734H35Z" fill="white"/>
<path d="M18.0932 12.7536V15.9536H17.0752V8.05357H19.7662C20.0886 8.04812 20.409 8.10644 20.7088 8.2252C21.0086 8.34396 21.282 8.5208 21.5132 8.74557C21.7322 8.94997 21.9088 9.19553 22.0329 9.46821C22.157 9.7409 22.2261 10.0354 22.2363 10.3348C22.2466 10.6342 22.1977 10.9327 22.0925 11.2132C21.9872 11.4937 21.8278 11.7507 21.6232 11.9696L21.5132 12.0856C21.0432 12.5326 20.4152 12.7756 19.7662 12.7596L18.0932 12.7536ZM18.0932 9.02157V11.8096H19.7912C20.1682 11.8216 20.5322 11.6746 20.7962 11.4056C20.985 11.2087 21.1118 10.9607 21.1608 10.6924C21.2098 10.4241 21.1788 10.1473 21.0717 9.8964C20.9646 9.64554 20.7861 9.43171 20.5585 9.28149C20.3308 9.13128 20.064 9.05133 19.7912 9.05157L18.0932 9.02157ZM24.5772 10.3696C25.2272 10.3396 25.8632 10.5576 26.3552 10.9826C26.8002 11.4126 27.0372 12.0126 27.0052 12.6316V15.9656H26.0362V15.1996H25.9872C25.8134 15.4869 25.5677 15.7239 25.2743 15.8872C24.9809 16.0504 24.6499 16.1343 24.3142 16.1306C23.7661 16.1483 23.2316 15.9579 22.8182 15.5976C22.6223 15.4378 22.4654 15.2356 22.3592 15.0062C22.253 14.7768 22.2003 14.5263 22.2052 14.2736C22.1937 14.0182 22.2433 13.7637 22.3499 13.5313C22.4565 13.299 22.6171 13.0954 22.8182 12.9376C23.3116 12.5827 23.9088 12.4016 24.5162 12.4226C25.0332 12.4026 25.5462 12.5156 26.0062 12.7536V12.5456C26.0096 12.3736 25.9738 12.2031 25.9015 12.047C25.8293 11.8909 25.7225 11.7533 25.5892 11.6446C25.3215 11.4012 24.9709 11.2696 24.6092 11.2766C24.3465 11.2741 24.0875 11.3386 23.8568 11.4641C23.626 11.5896 23.431 11.7718 23.2902 11.9936L22.3952 11.4296C22.6382 11.0814 22.9663 10.8012 23.3483 10.6156C23.7302 10.4301 24.1533 10.3454 24.5772 10.3696ZM23.2902 14.2976C23.2878 14.4271 23.3173 14.5552 23.376 14.6707C23.4348 14.7861 23.5211 14.8853 23.6272 14.9596C23.8502 15.1356 24.1272 15.2286 24.4122 15.2226C24.8412 15.2216 25.2522 15.0526 25.5582 14.7506C25.8632 14.4646 26.0362 14.0656 26.0362 13.6476C25.6512 13.3739 25.1835 13.2418 24.7122 13.2736C24.3463 13.2592 23.9854 13.3622 23.6822 13.5676C23.5621 13.6479 23.4636 13.7565 23.3953 13.8837C23.3269 14.011 23.2908 14.1531 23.2902 14.2976ZM32.5762 10.5476L29.1862 18.3376H28.1382L29.4192 15.6096L27.1952 10.5476H28.2982L29.9102 14.4326L31.4792 10.5476H32.5762Z" fill="#5F6368"/>
<path d="M13.986 12.0611C13.986 11.7531 13.962 11.4451 13.913 11.1411H9.62305V12.8881H12.074C12.0241 13.1658 11.9187 13.4305 11.7641 13.6664C11.6094 13.9023 11.4087 14.1046 11.174 14.2611V15.3951H12.638C13.0832 14.9644 13.4331 14.4452 13.6653 13.8709C13.8975 13.2967 14.0067 12.6802 13.986 12.0611Z" fill="#4285F4"/>
<path d="M9.62915 16.4983C10.7355 16.5287 11.8118 16.1364 12.6391 15.4013L11.1731 14.2613C10.8209 14.4871 10.4218 14.6297 10.0062 14.6781C9.59055 14.7265 9.16936 14.6795 8.77463 14.5407C8.3799 14.4018 8.02204 14.1748 7.72824 13.8769C7.43444 13.5789 7.21245 13.2179 7.07915 12.8213H5.57715V13.9913C5.953 14.7443 6.5312 15.3778 7.2469 15.8206C7.96261 16.2634 8.78753 16.4981 9.62915 16.4983Z" fill="#34A853"/>
<path d="M7.07893 12.8274C6.88872 12.2647 6.88872 11.6551 7.07893 11.0924V9.92236H5.57693C5.25672 10.5538 5.08984 11.2519 5.08984 11.9599C5.08984 12.6679 5.25672 13.3659 5.57693 13.9974L7.07893 12.8274Z" fill="#FBBC04"/>
<path d="M9.62915 9.21753C10.2762 9.20571 10.9016 9.45014 11.3691 9.89753L12.6691 8.60453C11.8402 7.82654 10.7408 7.40219 9.60415 7.42153C8.76752 7.42573 7.94839 7.66154 7.23758 8.10281C6.52677 8.54409 5.95206 9.17359 5.57715 9.92153L7.07915 11.0925C7.25477 10.5526 7.59524 10.0813 8.05266 9.745C8.51007 9.40867 9.06142 9.22419 9.62915 9.21753Z" fill="#EA4335"/>
</g>
<defs>
<clipPath id="clip0_6701_2096">
<rect width="38" height="24" fill="white" transform="translate(0 0.777344)"/>
</clipPath>
</defs>
</svg>
