<svg width="51" height="50" viewBox="0 0 51 50" fill="none" xmlns="http://www.w3.org/2000/svg">
<g clip-path="url(#clip0_6758_2528)">
<path d="M29.664 7.35649C29.0809 6.77253 28.3067 6.4516 27.4809 6.4516C25.779 6.4516 24.3937 7.83611 24.3937 9.53958C24.3937 10.3638 24.7147 11.1387 25.2979 11.7227L25.6727 12.0968L2.7743 34.9952C1.11454 36.6549 0.200195 38.8621 0.200195 41.2105C0.200195 46.0563 4.14385 50 8.98965 50C11.3373 50 13.5445 49.0856 15.205 47.4259L38.1034 24.5275L38.4783 24.9015C39.0615 25.4855 39.8356 25.8064 40.6614 25.8064C42.3633 25.8064 43.7486 24.4219 43.7486 22.7185C43.7486 21.8943 43.4277 21.1193 42.8445 20.5354L29.664 7.35649ZM14.0646 46.2855C12.71 47.6405 10.9066 48.3871 8.98965 48.3871C5.03261 48.3871 1.8131 45.1676 1.8131 41.2105C1.8131 39.2936 2.5597 37.4909 3.91468 36.1356L7.79218 32.2581H28.0921L14.0646 46.2855ZM40.6614 24.1935C40.2735 24.1935 39.8939 24.0364 39.6187 23.7612L38.1034 22.2467L29.705 30.6451H9.40509L12.297 27.7533L14.1461 29.6024L15.2865 28.4621L13.4373 26.6129L14.7163 25.3339L18.1784 28.796L19.3188 27.6556L15.8567 24.1935L17.1357 22.9146L18.9848 24.7637L20.1252 23.6234L18.2761 21.7742L19.555 20.4952L23.0171 23.9573L24.1575 22.8169L20.6954 19.3548L21.9744 18.0758L23.8236 19.925L24.9639 18.7846L23.1148 16.9355L24.3937 15.6565L27.8558 19.1186L28.9962 17.9782L25.5341 14.5161L26.8131 13.2379L35.1139 21.5379L36.2543 20.3975L26.4382 10.5823C26.1598 10.3031 26.0066 9.93297 26.0066 9.53958C26.0066 8.72565 26.6678 8.0645 27.4809 8.0645C27.8688 8.0645 28.2484 8.22162 28.5237 8.49687L41.7041 21.6757C41.9825 21.9549 42.1357 22.3251 42.1357 22.7185C42.1357 23.5324 41.4745 24.1935 40.6614 24.1935Z" fill="#000309"/>
<path d="M46.9743 8.87097C45.1953 8.87097 43.7485 10.3177 43.7485 12.0968C43.7485 13.8759 45.1953 15.3226 46.9743 15.3226C48.7534 15.3226 50.2001 13.8759 50.2001 12.0968C50.2001 10.3177 48.7534 8.87097 46.9743 8.87097ZM46.9743 13.7097C46.0848 13.7097 45.3614 12.9863 45.3614 12.0968C45.3614 11.2072 46.0848 10.4839 46.9743 10.4839C47.8639 10.4839 48.5872 11.2072 48.5872 12.0968C48.5872 12.9863 47.8639 13.7097 46.9743 13.7097Z" fill="#000309"/>
<path d="M34.8779 7.25808C36.2116 7.25808 37.2972 6.17244 37.2972 4.83873C37.2972 3.50501 36.2116 2.41937 34.8779 2.41937C33.5441 2.41937 32.4585 3.50501 32.4585 4.83873C32.4585 6.17244 33.5441 7.25808 34.8779 7.25808ZM34.8779 4.03228C35.3228 4.03228 35.6843 4.39455 35.6843 4.83873C35.6843 5.28291 35.3228 5.64518 34.8779 5.64518C34.4329 5.64518 34.0714 5.28291 34.0714 4.83873C34.0714 4.39455 34.4329 4.03228 34.8779 4.03228Z" fill="#000309"/>
<path d="M44.5551 4.83871C45.8888 4.83871 46.9745 3.75307 46.9745 2.41935C46.9745 1.08564 45.8888 0 44.5551 0C43.2214 0 42.1357 1.08564 42.1357 2.41935C42.1357 3.75307 43.2214 4.83871 44.5551 4.83871ZM44.5551 1.6129C45.0001 1.6129 45.3615 1.97518 45.3615 2.41935C45.3615 2.86353 45.0001 3.22581 44.5551 3.22581C44.1101 3.22581 43.7486 2.86353 43.7486 2.41935C43.7486 1.97518 44.1101 1.6129 44.5551 1.6129Z" fill="#000309"/>
<path d="M10.6839 37.0968C10.6839 35.7631 9.59829 34.6774 8.26457 34.6774C6.93085 34.6774 5.84521 35.7631 5.84521 37.0968C5.84521 38.4305 6.93085 39.5161 8.26457 39.5161C9.59829 39.5161 10.6839 38.4305 10.6839 37.0968ZM7.45812 37.0968C7.45812 36.6526 7.8196 36.2903 8.26457 36.2903C8.70954 36.2903 9.07102 36.6526 9.07102 37.0968C9.07102 37.541 8.70954 37.9032 8.26457 37.9032C7.8196 37.9032 7.45812 37.541 7.45812 37.0968Z" fill="#000309"/>
<path d="M17.1357 34.6774C15.8019 34.6774 14.7163 35.7631 14.7163 37.0968C14.7163 38.4305 15.8019 39.5161 17.1357 39.5161C18.4694 39.5161 19.555 38.4305 19.555 37.0968C19.555 35.7631 18.4694 34.6774 17.1357 34.6774ZM17.1357 37.9032C16.6907 37.9032 16.3292 37.541 16.3292 37.0968C16.3292 36.6526 16.6907 36.2903 17.1357 36.2903C17.5806 36.2903 17.9421 36.6526 17.9421 37.0968C17.9421 37.541 17.5806 37.9032 17.1357 37.9032Z" fill="#000309"/>
<path d="M9.87785 41.9355C8.54413 41.9355 7.4585 43.0211 7.4585 44.3548C7.4585 45.6886 8.54413 46.7742 9.87785 46.7742C11.2116 46.7742 12.2972 45.6886 12.2972 44.3548C12.2972 43.0211 11.2116 41.9355 9.87785 41.9355ZM9.87785 45.1613C9.43289 45.1613 9.0714 44.799 9.0714 44.3548C9.0714 43.9107 9.43289 43.5484 9.87785 43.5484C10.3228 43.5484 10.6843 43.9107 10.6843 44.3548C10.6843 44.799 10.3228 45.1613 9.87785 45.1613Z" fill="#000309"/>
</g>
<defs>
<clipPath id="clip0_6758_2528">
<rect width="50" height="50" fill="white" transform="translate(0.200195)"/>
</clipPath>
</defs>
</svg>
