<svg width="38" height="25" viewBox="0 0 38 25" fill="none" xmlns="http://www.w3.org/2000/svg">
<g clip-path="url(#clip0_6701_2089)">
<path opacity="0.07" d="M35 0.777344H3C1.3 0.777344 0 2.07734 0 3.77734V21.7773C0 23.4773 1.4 24.7773 3 24.7773H35C36.7 24.7773 38 23.4773 38 21.7773V3.77734C38 2.07734 36.6 0.777344 35 0.777344Z" fill="black"/>
<path d="M35 1.77734C36.1 1.77734 37 2.67734 37 3.77734V21.7773C37 22.8773 36.1 23.7773 35 23.7773H3C1.9 23.7773 1 22.8773 1 21.7773V3.77734C1 2.67734 1.9 1.77734 3 1.77734H35Z" fill="white"/>
<path d="M4.983 13.7633C4.983 14.1113 5.059 14.3773 5.159 14.5393C5.21203 14.6312 5.28846 14.7074 5.38051 14.7601C5.47256 14.8128 5.57694 14.8401 5.683 14.8393C5.94 14.8393 6.174 14.7763 6.626 14.1513C6.988 13.6513 7.414 12.9473 7.702 12.5063L8.188 11.7593C8.525 11.2413 8.916 10.6643 9.364 10.2733C9.73 9.95434 10.124 9.77734 10.522 9.77734C11.189 9.77734 11.824 10.1633 12.31 10.8883C12.842 11.6823 13.1 12.6813 13.1 13.7133C13.1 14.3263 12.98 14.7773 12.774 15.1333C12.574 15.4783 12.187 15.8213 11.536 15.8213V14.8403C12.094 14.8403 12.233 14.3273 12.233 13.7403C12.233 12.9043 12.038 11.9763 11.609 11.3133C11.304 10.8433 10.909 10.5563 10.475 10.5563C10.005 10.5563 9.627 10.9103 9.201 11.5423C8.975 11.8783 8.744 12.2873 8.483 12.7493L8.196 13.2573C7.62 14.2773 7.474 14.5113 7.186 14.8943C6.682 15.5663 6.251 15.8213 5.684 15.8213C5.01 15.8213 4.584 15.5303 4.321 15.0913C4.106 14.7333 4 14.2633 4 13.7273L4.983 13.7623V13.7633Z" fill="#0081FB"/>
<path d="M4.77539 10.9573C5.22539 10.2633 5.87539 9.77734 6.62239 9.77734C7.05439 9.77734 7.48339 9.90534 7.93239 10.2713C8.42239 10.6713 8.94539 11.3313 9.59739 12.4173L9.83139 12.8073C10.3964 13.7473 10.7174 14.2313 10.9054 14.4593C11.1474 14.7523 11.3164 14.8393 11.5364 14.8393C12.0944 14.8393 12.2334 14.3273 12.2334 13.7403L13.1004 13.7133C13.1004 14.3263 12.9804 14.7773 12.7744 15.1333C12.5744 15.4783 12.1874 15.8213 11.5364 15.8213C11.1314 15.8213 10.7724 15.7333 10.3764 15.3593C10.0704 15.0723 9.71339 14.5613 9.43939 14.1023L8.62339 12.7393C8.21339 12.0553 7.83839 11.5453 7.62039 11.3143C7.38639 11.0653 7.08639 10.7653 6.60639 10.7653C6.21839 10.7653 5.88839 11.0383 5.61239 11.4553L4.77539 10.9573Z" fill="url(#paint0_linear_6701_2089)"/>
<path d="M6.606 10.7653C6.218 10.7653 5.888 11.0383 5.612 11.4553C5.222 12.0433 4.983 12.9213 4.983 13.7633C4.983 14.1113 5.059 14.3773 5.159 14.5393L4.321 15.0913C4.106 14.7333 4 14.2633 4 13.7273C4 12.7543 4.267 11.7403 4.775 10.9573C5.225 10.2623 5.875 9.77734 6.622 9.77734L6.606 10.7653Z" fill="url(#paint1_linear_6701_2089)"/>
<path d="M15.0098 9.96826H16.1478L18.0808 13.4663L20.0148 9.96826H21.1268V15.7153H20.1988V11.3103L18.5038 14.3603H17.6338L15.9378 11.3103V15.7153H15.0108L15.0098 9.96826ZM24.0328 12.1113C23.3678 12.1113 22.9668 12.6113 22.8708 13.2313H25.1288C25.0828 12.5933 24.7138 12.1113 24.0328 12.1113ZM21.9518 13.5853C21.9518 12.2803 22.7948 11.3313 24.0488 11.3313C25.2828 11.3313 26.0198 12.2683 26.0198 13.6543V13.9093H22.8718C22.9828 14.5833 23.4308 15.0383 24.1518 15.0383C24.7278 15.0383 25.0878 14.8623 25.4288 14.5413L25.9218 15.1443C25.4568 15.5713 24.8668 15.8183 24.1188 15.8183C22.7608 15.8183 21.9518 14.8283 21.9518 13.5853ZM27.1448 12.1933H26.2908V11.4333H27.1448V10.1793H28.0398V11.4353H29.3368V12.1953H28.0398V14.1193C28.0398 14.7763 28.2498 15.0093 28.7658 15.0093C29.0018 15.0093 29.1368 14.9893 29.3358 14.9563V15.7083C29.0878 15.7783 28.8508 15.8103 28.5938 15.8103C27.6278 15.8103 27.1438 15.2823 27.1438 14.2263V12.1943L27.1448 12.1933ZM33.1048 12.9323C33.017 12.6948 32.8568 12.491 32.6469 12.3496C32.4369 12.2081 32.1878 12.1363 31.9348 12.1443C31.1688 12.1443 30.6788 12.6873 30.6788 13.5723C30.6788 14.4353 31.1298 15.0053 31.8988 15.0053C32.5018 15.0053 32.9328 14.6543 33.1048 14.2173V12.9323ZM33.9998 15.7153H33.1218V15.1153C32.8758 15.4683 32.4288 15.8183 31.7048 15.8183C30.5408 15.8183 29.7638 14.8433 29.7638 13.5723C29.7638 12.2893 30.5598 11.3313 31.7538 11.3313C32.3448 11.3313 32.8088 11.5673 33.1218 11.9843V11.4343H33.9998V15.7153Z" fill="black"/>
</g>
<defs>
<linearGradient id="paint0_linear_6701_2089" x1="5.93039" y1="13.4803" x2="12.1964" y2="13.7963" gradientUnits="userSpaceOnUse">
<stop stop-color="#0064E1"/>
<stop offset="0.4" stop-color="#0064E1"/>
<stop offset="0.83" stop-color="#0073EE"/>
<stop offset="1" stop-color="#0082FB"/>
</linearGradient>
<linearGradient id="paint1_linear_6701_2089" x1="5.424" y1="14.1763" x2="5.424" y2="11.8663" gradientUnits="userSpaceOnUse">
<stop stop-color="#0082FB"/>
<stop offset="1" stop-color="#0064E0"/>
</linearGradient>
<clipPath id="clip0_6701_2089">
<rect width="38" height="24" fill="white" transform="translate(0 0.777344)"/>
</clipPath>
</defs>
</svg>
