<svg width="51" height="50" viewBox="0 0 51 50" fill="none" xmlns="http://www.w3.org/2000/svg">
<path d="M15.4058 31.5139C15.8281 31.5231 16.2481 31.4481 16.6411 31.2933C17.0341 31.1384 17.3923 30.9069 17.6949 30.6121C17.9974 30.3173 18.2382 29.9652 18.4032 29.5763C18.5682 29.1874 18.6541 28.7696 18.6558 28.3472V25.4861C18.6558 25.2061 18.5446 24.9376 18.3467 24.7397C18.1487 24.5417 17.8802 24.4305 17.6003 24.4305H14.4891C14.2092 24.4305 13.9407 24.5417 13.7428 24.7397C13.5448 24.9376 13.4336 25.2061 13.4336 25.4861C13.4336 25.766 13.5448 26.0345 13.7428 26.2325C13.9407 26.4304 14.2092 26.5416 14.4891 26.5416H16.5169V28.3472C16.5064 28.6262 16.3899 28.8907 16.1912 29.0868C15.9926 29.2829 15.7266 29.3959 15.4475 29.4028H12.3086C12.077 29.4028 11.8476 29.3571 11.6336 29.2685C11.4196 29.1798 11.2251 29.0499 11.0613 28.8861C10.8975 28.7223 10.7676 28.5279 10.679 28.3139C10.5903 28.0999 10.5447 27.8705 10.5447 27.6389V22.3611C10.5447 21.8933 10.7305 21.4446 11.0613 21.1138C11.3921 20.783 11.8408 20.5972 12.3086 20.5972H16.2947C16.5747 20.5972 16.8431 20.486 17.0411 20.288C17.2391 20.0901 17.3503 19.8216 17.3503 19.5416C17.3503 19.2617 17.2391 18.9932 17.0411 18.7952C16.8431 18.5973 16.5747 18.4861 16.2947 18.4861H12.3086C11.2809 18.4861 10.2953 18.8943 9.56855 19.621C8.84185 20.3477 8.43359 21.3334 8.43359 22.3611V27.6389C8.43359 28.6666 8.84185 29.6522 9.56855 30.3789C10.2953 31.1056 11.2809 31.5139 12.3086 31.5139H15.4058Z" fill="#000309"/>
<path d="M29.7668 31.5139C30.0468 31.5139 30.3153 31.4027 30.5132 31.2047C30.7112 31.0068 30.8224 30.7383 30.8224 30.4584V19.5417C30.8255 19.3123 30.7537 19.0881 30.618 18.9031C30.4823 18.7181 30.29 18.5824 30.0702 18.5164C29.8505 18.4505 29.6152 18.458 29.4001 18.5377C29.1849 18.6175 29.0016 18.7651 28.8779 18.9584L25.6002 23.8889L22.3085 18.9584C22.1854 18.7678 22.0035 18.6227 21.7904 18.545C21.5774 18.4673 21.3448 18.4613 21.1279 18.5278C20.9116 18.5955 20.7224 18.7302 20.5876 18.9124C20.4528 19.0947 20.3794 19.315 20.3779 19.5417V30.4584C20.3779 30.7383 20.4891 31.0068 20.6871 31.2047C20.8851 31.4027 21.1535 31.5139 21.4335 31.5139C21.7134 31.5139 21.9819 31.4027 22.1799 31.2047C22.3778 31.0068 22.489 30.7383 22.489 30.4584V23.0417L24.7668 26.3889C24.8689 26.5268 25.0018 26.6388 25.155 26.716C25.3081 26.7932 25.4772 26.8334 25.6488 26.8334C25.8203 26.8334 25.9894 26.7932 26.1426 26.716C26.2957 26.6388 26.4287 26.5268 26.5307 26.3889L28.7529 23.0556V30.4722C28.7596 30.7417 28.8677 30.9987 29.0557 31.1918C29.2437 31.385 29.4977 31.5 29.7668 31.5139Z" fill="#000309"/>
<path d="M44.3927 13.1528C44.3251 13.0234 44.2314 12.9094 44.1175 12.818C44.0037 12.7266 43.8721 12.6599 43.7311 12.622C43.5901 12.5841 43.4428 12.5758 43.2984 12.5977C43.1541 12.6196 43.0159 12.6713 42.8925 12.7493C42.7691 12.8274 42.6633 12.9302 42.5817 13.0513C42.5001 13.1724 42.4445 13.309 42.4184 13.4527C42.3923 13.5963 42.3963 13.7438 42.4301 13.8858C42.4639 14.0279 42.5268 14.1613 42.6149 14.2778C44.5322 17.3203 45.5986 20.8212 45.7031 24.416C45.8075 28.0107 44.9462 31.5676 43.2087 34.7163C41.4713 37.865 38.9213 40.4902 35.8245 42.3184C32.7276 44.1466 29.1972 45.111 25.601 45.1111C20.6353 45.1164 15.8463 43.2692 12.1704 39.9306L16.476 35.625C16.5745 35.5265 16.6526 35.4096 16.7059 35.2809C16.7592 35.1522 16.7866 35.0143 16.7866 34.875C16.7866 34.7357 16.7592 34.5978 16.7059 34.4691C16.6526 34.3404 16.5745 34.2235 16.476 34.125C16.3775 34.0265 16.2606 33.9484 16.1319 33.8951C16.0032 33.8418 15.8653 33.8144 15.726 33.8144C15.5867 33.8144 15.4488 33.8418 15.3201 33.8951C15.1914 33.9484 15.0745 34.0265 14.976 34.125L9.90654 39.2222C9.80744 39.3204 9.72877 39.4372 9.67508 39.5659C9.62139 39.6947 9.59375 39.8328 9.59375 39.9723C9.59375 40.1117 9.62139 40.2498 9.67508 40.3786C9.72877 40.5073 9.80744 40.6241 9.90654 40.7222C13.777 44.563 18.9245 46.8467 24.3694 47.1387C29.8143 47.4307 35.1765 45.7106 39.4355 42.3058C43.6945 38.9009 46.5531 34.0491 47.4671 28.6735C48.3812 23.298 47.2869 17.774 44.3927 13.1528Z" fill="#000309"/>
<path d="M5.48968 25C5.49703 19.6684 7.61823 14.5574 11.3882 10.7874C15.1582 7.01742 20.2692 4.89622 25.6008 4.88887C30.5665 4.88357 35.3555 6.73085 39.0313 10.0694L34.7258 14.375C34.6273 14.4735 34.5492 14.5904 34.4959 14.7191C34.4426 14.8478 34.4151 14.9857 34.4151 15.125C34.4151 15.2643 34.4426 15.4022 34.4959 15.5309C34.5492 15.6596 34.6273 15.7765 34.7258 15.875C34.8243 15.9735 34.9412 16.0516 35.0699 16.1049C35.1986 16.1582 35.3365 16.1856 35.4758 16.1856C35.6151 16.1856 35.753 16.1582 35.8817 16.1049C36.0104 16.0516 36.1273 15.9735 36.2258 15.875L41.1702 10.9305C41.2903 10.8306 41.3889 10.7073 41.4598 10.5682C41.5308 10.429 41.5728 10.2769 41.5832 10.121C41.5936 9.96516 41.5722 9.8088 41.5203 9.66145C41.4684 9.5141 41.3871 9.37884 41.2813 9.26387C37.4087 5.42761 32.2611 3.14857 26.8176 2.86023C21.3742 2.5719 16.0146 4.29438 11.7584 7.70007C7.50214 11.1058 4.64613 15.957 3.73358 21.3312C2.82103 26.7054 3.91561 32.2275 6.80912 36.8472C6.87669 36.9766 6.97037 37.0906 7.08424 37.182C7.19812 37.2734 7.32971 37.3401 7.47069 37.378C7.61168 37.4159 7.759 37.4242 7.90334 37.4023C8.04769 37.3804 8.18591 37.3287 8.30928 37.2507C8.43265 37.1726 8.53849 37.0698 8.62009 36.9487C8.7017 36.8277 8.75731 36.691 8.7834 36.5473C8.80949 36.4037 8.8055 36.2562 8.77168 36.1142C8.73785 35.9721 8.67494 35.8387 8.5869 35.7222C6.56638 32.5107 5.49286 28.7943 5.48968 25Z" fill="#000309"/>
<path d="M39.1281 18.4861H35.7115C35.0558 18.4861 34.427 18.7465 33.9634 19.2102C33.4997 19.6738 33.2393 20.3026 33.2393 20.9583V29.0416C33.2393 29.6973 33.4997 30.3261 33.9634 30.7898C34.427 31.2534 35.0558 31.5139 35.7115 31.5139H39.1281C39.7839 31.5133 40.4129 31.2538 40.8781 30.7916C41.1095 30.5631 41.2926 30.2904 41.4166 29.9898C41.5407 29.6893 41.6032 29.3668 41.6004 29.0416V20.9583C41.6032 20.6331 41.5407 20.3107 41.4166 20.0101C41.2926 19.7095 41.1095 19.4369 40.8781 19.2083C40.4129 18.7462 39.7839 18.4866 39.1281 18.4861ZM39.4754 29.0416C39.4765 29.0889 39.4671 29.1359 39.4479 29.1791C39.4287 29.2224 39.4001 29.2608 39.3643 29.2916C39.3349 29.3257 39.2988 29.3533 39.2581 29.3724C39.2174 29.3915 39.1731 29.4019 39.1281 29.4028H35.7115C35.6645 29.4021 35.6181 29.392 35.5751 29.3729C35.5321 29.3538 35.4935 29.3261 35.4615 29.2916C35.4256 29.2608 35.397 29.2224 35.3778 29.1791C35.3586 29.1359 35.3492 29.0889 35.3504 29.0416V20.9583C35.3538 20.8636 35.393 20.7738 35.46 20.7068C35.5269 20.6398 35.6168 20.6006 35.7115 20.5972H39.1281C39.1731 20.5981 39.2174 20.6084 39.2581 20.6275C39.2988 20.6467 39.3349 20.6742 39.3643 20.7083C39.3987 20.7403 39.4264 20.7789 39.4455 20.8219C39.4646 20.8649 39.4747 20.9113 39.4754 20.9583V29.0416Z" fill="#000309"/>
</svg>
