<svg width="38" height="25" viewBox="0 0 38 25" fill="none" xmlns="http://www.w3.org/2000/svg">
<g clip-path="url(#clip0_6701_2065)">
<path d="M34.3874 0.777344H3.61312C3.48493 0.777344 3.35651 0.777344 3.22854 0.778023C3.1205 0.778929 3.01269 0.780062 2.90466 0.783006C2.66934 0.789348 2.43197 0.80339 2.1996 0.845064C1.96655 0.884992 1.74075 0.959418 1.52964 1.06589C1.10523 1.28175 0.76027 1.62672 0.544407 2.05112C0.437744 2.26232 0.363309 2.48829 0.32358 2.72153C0.281453 2.95414 0.267637 3.19127 0.261295 3.42637C0.258535 3.53431 0.256874 3.64228 0.256312 3.75025C0.255859 3.87799 0.255859 4.00618 0.255859 4.1346V21.4199C0.255859 21.5483 0.255859 21.6762 0.256312 21.8047C0.256992 21.9125 0.258351 22.0205 0.261295 22.1285C0.267637 22.3632 0.281679 22.6005 0.32358 22.8329C0.363227 23.0662 0.437586 23.2921 0.544181 23.5033C0.651352 23.7143 0.791243 23.9069 0.958658 24.0741C1.12579 24.2416 1.31843 24.3815 1.52941 24.4886C1.7439 24.598 1.96359 24.6675 2.19982 24.7098C2.43197 24.7513 2.66934 24.7653 2.90466 24.7717C3.01269 24.7742 3.1205 24.7755 3.22854 24.7762C3.35651 24.7771 3.48493 24.7771 3.61312 24.7771H34.3874C34.5154 24.7771 34.6438 24.7771 34.7718 24.7762C34.8796 24.7758 34.9874 24.7742 35.0959 24.7717C35.3308 24.7653 35.5681 24.7513 35.801 24.7098C36.0341 24.6699 36.2599 24.5953 36.4709 24.4886C36.8951 24.2724 37.24 23.9275 37.4561 23.5033C37.5655 23.2888 37.6348 23.0692 37.6767 22.8329C37.7189 22.6005 37.7325 22.3632 37.7388 22.1285C37.7417 22.0205 37.7433 21.9125 37.7438 21.8047C37.7447 21.6762 37.7447 21.5483 37.7447 21.4199V4.13483C37.7447 4.00641 37.7447 3.87822 37.7438 3.75002C37.7433 3.64212 37.7417 3.53423 37.7388 3.42637C37.7325 3.19127 37.7189 2.95414 37.6767 2.72153C37.6373 2.48825 37.5629 2.26225 37.4561 2.05112C37.2402 1.62679 36.8952 1.28186 36.4709 1.06589C36.2598 0.959528 36.034 0.88518 35.801 0.845291C35.5681 0.80339 35.3308 0.789574 35.0959 0.783232C34.9879 0.780489 34.8798 0.778828 34.7718 0.77825C34.6438 0.777344 34.5154 0.777344 34.3874 0.777344Z" fill="black"/>
<path d="M34.3873 1.57715L34.766 1.57783C34.8683 1.57851 34.9709 1.57964 35.074 1.58236C35.2536 1.58734 35.4633 1.59708 35.659 1.63219C35.8289 1.66276 35.9716 1.70919 36.1084 1.77895C36.3821 1.91814 36.6045 2.14079 36.7434 2.41471C36.8128 2.5506 36.859 2.69238 36.8895 2.86384C36.9244 3.05726 36.9342 3.26767 36.9389 3.44818C36.9419 3.5501 36.9432 3.65202 36.9434 3.75621C36.9446 3.88236 36.9446 4.00829 36.9446 4.13467V21.4199C36.9446 21.5463 36.9446 21.6722 36.9437 21.8009C36.9432 21.9028 36.9418 22.0047 36.9391 22.1066C36.9341 22.2869 36.9244 22.4973 36.8891 22.693C36.8634 22.8487 36.8141 22.9995 36.743 23.1403C36.6038 23.4144 36.3811 23.637 36.107 23.7761C35.9711 23.8454 35.8289 23.8918 35.6606 23.9222C35.4611 23.9577 35.2423 23.9675 35.0776 23.972C34.9741 23.9743 34.8711 23.9759 34.7653 23.9763C34.6396 23.9772 34.5132 23.9772 34.3873 23.9772H3.60798C3.48341 23.9772 3.35884 23.9772 3.232 23.9763C3.13007 23.9759 3.02815 23.9745 2.92624 23.9722C2.75774 23.9677 2.53895 23.9577 2.34099 23.9224C2.18448 23.8963 2.03283 23.8467 1.89119 23.7752C1.75532 23.7062 1.63131 23.616 1.52382 23.5079C1.41599 23.4003 1.32593 23.2762 1.25701 23.1403C1.18584 22.9987 1.13651 22.8471 1.1107 22.6908C1.07537 22.4953 1.0654 22.2858 1.06087 22.1069C1.05831 22.0046 1.0568 21.9023 1.05634 21.8L1.05566 21.4994V4.0554L1.05612 3.7553C1.05658 3.65284 1.05809 3.55039 1.06065 3.44796C1.06563 3.26857 1.07537 3.05907 1.11093 2.86203C1.13679 2.70594 1.18612 2.55467 1.25724 2.41335C1.32609 2.27791 1.41578 2.15424 1.5245 2.04576C1.63225 1.93784 1.75639 1.84764 1.89232 1.7785C2.03362 1.70751 2.18479 1.65819 2.34077 1.63219C2.53668 1.59708 2.74664 1.58734 2.92647 1.58236C3.02884 1.57964 3.13144 1.57851 3.23314 1.57783L3.61296 1.57715H34.3873Z" fill="white"/>
<path d="M10.1097 8.87906C10.4277 8.48157 10.6433 7.94773 10.5864 7.40234C10.1212 7.42545 9.55363 7.70924 9.22477 8.10718C8.92965 8.44782 8.66851 9.00385 8.73646 9.52637C9.25874 9.57166 9.78058 9.26545 10.1097 8.87906Z" fill="black"/>
<path d="M10.5804 9.62853C9.82162 9.58323 9.17703 10.0589 8.81487 10.0589C8.45249 10.0589 7.89782 9.65118 7.29784 9.66228C6.51713 9.6736 5.79282 10.1153 5.39646 10.8174C4.58155 12.2216 5.1813 14.3053 5.97401 15.4491C6.35882 16.0153 6.82267 16.6382 7.43374 16.6157C8.01129 16.5931 8.23755 16.242 8.93922 16.242C9.64066 16.242 9.8445 16.6157 10.4558 16.6044C11.0895 16.5931 11.4859 16.0382 11.8707 15.472C12.3123 14.8265 12.4928 14.2036 12.5042 14.1697C12.4928 14.1583 11.282 13.6938 11.2707 12.3009C11.2594 11.1345 12.2215 10.5796 12.2668 10.5454C11.7235 9.74177 10.8746 9.65118 10.5801 9.62853" fill="black"/>
<path d="M18.1419 8.05029C19.7903 8.05029 20.9384 9.18659 20.9384 10.8409C20.9384 12.501 19.7668 13.6432 18.1007 13.6432H16.2757V16.5459H14.957V8.05029H18.1419ZM16.2757 12.5364H17.7886C18.9369 12.5364 19.5901 11.9183 19.5901 10.8468C19.5901 9.77547 18.9367 9.16304 17.7945 9.16304H16.2757V12.5364Z" fill="black"/>
<path d="M21.2656 14.7854C21.2656 13.6962 22.0957 13.0722 23.6263 12.978L25.2688 12.8779V12.4068C25.2688 11.7182 24.8156 11.3414 24.0091 11.3414C23.3437 11.3414 22.8608 11.6827 22.7611 12.2066H21.5716C21.6072 11.1058 22.6431 10.3052 24.0444 10.3052C25.5515 10.3052 26.5347 11.094 26.5347 12.3187V16.5457H25.3162V15.5271H25.2867C24.9393 16.1923 24.1738 16.6102 23.3437 16.6102C22.1193 16.6102 21.2656 15.8805 21.2656 14.7854ZM25.2688 14.2379V13.761L23.803 13.8552C22.9786 13.9082 22.5491 14.2142 22.5491 14.7498C22.5491 15.268 22.9965 15.6037 23.697 15.6037C24.5916 15.6037 25.2688 15.0325 25.2688 14.2379Z" fill="black"/>
<path d="M27.6554 18.8181V17.7998C27.7378 17.8114 27.9378 17.8232 28.0438 17.8232C28.6266 17.8232 28.9564 17.5763 29.1566 16.9401L29.2743 16.5634L27.043 10.3818H28.4205L29.9749 15.3977H30.0043L31.5585 10.3818H32.9009L30.5871 16.8753C30.0571 18.3649 29.4508 18.8537 28.1675 18.8537C28.0674 18.8537 27.7435 18.8419 27.6554 18.8181Z" fill="black"/>
</g>
<defs>
<clipPath id="clip0_6701_2065">
<rect width="38" height="24" fill="white" transform="translate(0 0.777344)"/>
</clipPath>
</defs>
</svg>
