<svg width="38" height="25" viewBox="0 0 38 25" fill="none" xmlns="http://www.w3.org/2000/svg">
<g clip-path="url(#clip0_6701_2076)">
<path opacity="0.07" d="M35 0.777344H3C1.3 0.777344 0 2.07734 0 3.77734V21.7773C0 23.4773 1.4 24.7773 3 24.7773H35C36.7 24.7773 38 23.4773 38 21.7773V3.77734C38 2.07734 36.6 0.777344 35 0.777344Z" fill="black"/>
<path d="M35 1.77734C36.1 1.77734 37 2.67734 37 3.77734V21.7773C37 22.8773 36.1 23.7773 35 23.7773H3C1.9 23.7773 1 22.8773 1 21.7773V3.77734C1 2.67734 1.9 1.77734 3 1.77734H35Z" fill="white"/>
<path d="M12.0005 12.7773V16.4773C12.0005 16.7773 11.8005 16.7773 11.5005 16.6773C9.60047 15.8773 8.50047 13.3773 9.20047 11.2773C9.60047 10.1773 10.4005 9.27734 11.5005 8.87734C11.9005 8.67734 12.0005 8.77734 12.0005 9.07734V12.7773ZM14.0005 12.7773V9.07734C14.0005 8.77734 14.0005 8.77734 14.3005 8.87734C16.4005 9.67734 17.5005 12.1773 16.7005 14.2773C16.3005 15.3773 15.5005 16.2773 14.4005 16.6773C14.0005 16.8773 14.0005 16.7773 14.0005 16.4773V12.7773ZM21.2005 5.77734H13.0005C16.8005 5.77734 19.8005 8.87734 19.8005 12.7773C19.8005 16.6773 16.8005 19.7773 13.0005 19.7773H21.2005C25.0005 19.7773 28.0005 16.6773 28.0005 12.7773C28.0005 8.87734 25.0005 5.77734 21.2005 5.77734Z" fill="#3086C8"/>
</g>
<defs>
<clipPath id="clip0_6701_2076">
<rect width="38" height="24" fill="white" transform="translate(0 0.777344)"/>
</clipPath>
</defs>
</svg>
