<svg width="51" height="50" viewBox="0 0 51 50" fill="none" xmlns="http://www.w3.org/2000/svg">
<g clip-path="url(#clip0_6758_2573)">
<path d="M31.4857 14.8508C28.5449 14.3323 26.8139 10.6786 27.5452 6.53179C28.2531 2.51798 31.1087 -0.474384 34.0938 0.0624574C37.0346 0.580914 38.7656 4.23466 38.0343 8.38142C37.326 12.3989 34.4714 15.3854 31.4857 14.8508ZM29.3115 6.84354C28.7733 9.89386 29.9118 12.7524 31.7974 13.0852C33.7496 13.4182 35.7451 11.0381 36.2678 8.06968C36.806 5.01936 35.6675 2.16084 33.7819 1.82801C31.9037 1.50248 29.8569 3.7532 29.3115 6.84354Z" fill="#000309"/>
<path d="M39.366 23.6304C37.071 22.7949 36.1839 19.6394 37.3457 16.4464C38.5092 13.2542 41.2166 11.4063 43.5111 12.2418C45.8628 13.0974 46.6517 16.3471 45.5307 19.4249C44.367 22.6217 41.6561 24.4655 39.366 23.6304ZM39.0311 17.0595C38.2402 19.2332 38.6746 21.4699 39.9791 21.9454C41.2853 22.4192 43.0544 20.9847 43.8456 18.8119C44.6387 16.6329 44.1849 14.3952 42.8976 13.9269C41.5827 13.4499 39.8177 14.9007 39.0311 17.0595Z" fill="#000309"/>
<path d="M6.06798 19.4248C4.94766 16.3487 5.73459 13.0976 8.088 12.2418C10.4327 11.3853 13.1298 13.3623 14.2521 16.4464C15.3733 19.5248 14.5839 22.7749 12.233 23.6303C9.94301 24.4655 7.2319 22.6228 6.06798 19.4248ZM7.75293 18.8119C8.54424 20.9847 10.3158 22.4192 11.6194 21.9454C12.9102 21.4758 13.3584 19.2354 12.567 17.0594C11.7704 14.8733 9.98684 13.4613 8.7014 13.9268C7.41585 14.3943 6.95815 16.6285 7.75293 18.8119Z" fill="#000309"/>
<path d="M13.8977 8.38142C13.1665 4.23466 14.8974 0.580909 17.8382 0.0624515C20.8317 -0.473941 23.6806 2.5275 24.3868 6.53179C25.118 10.6785 23.3871 14.3323 20.4463 14.8508C17.2933 15.4153 14.5632 12.1569 13.8977 8.38142ZM18.1501 1.82801C16.2645 2.16083 15.126 5.01935 15.6641 8.06967C16.2103 11.1718 18.269 13.4115 20.1345 13.0852C22.02 12.7524 23.1586 9.89386 22.6204 6.84353C22.0723 3.73705 20.0185 1.50415 18.1501 1.82801Z" fill="#000309"/>
<path d="M23.8517 44.0971L22.0166 42.0145C21.6918 41.6405 21.7317 41.0739 22.1058 40.7492C22.476 40.4277 23.0359 40.4631 23.3626 40.8288L24.5248 42.1477L28.2367 37.9362C28.5672 37.5673 29.134 37.5363 29.5028 37.8668C29.8674 38.1934 29.9026 38.7521 29.5819 39.1219L25.1972 44.0972C24.8697 44.4688 24.3028 44.5045 23.9312 44.1768C23.9032 44.1519 23.8766 44.1254 23.8517 44.0971Z" fill="#000309"/>
<path d="M42.0811 30.4281C40.1967 28.7221 38.2312 28.694 36.5133 26.2359C35.2515 24.4321 35.15 21.911 33.8133 19.7727C32.4107 17.5273 29.6687 16.3406 25.8837 16.3406C22.3776 16.3406 19.6259 17.5395 18.1348 19.7176C16.7252 21.7754 16.4797 24.2344 15.296 26.0704C14.0525 28.0015 11.5877 28.7061 9.68449 30.4283C6.98448 32.8708 7.20778 37.0543 9.11043 39.4295C10.9208 41.6899 13.9889 42.426 16.9017 42.1826C17.5403 47.0968 22.0417 50.563 26.9559 49.9244C31.0011 49.3987 34.1827 46.2107 34.7 42.1644C37.452 42.4123 40.741 41.8182 42.655 39.4295C44.5578 37.0542 44.7811 32.8707 42.0811 30.4281ZM25.7996 48.2053C21.8294 48.2053 18.6108 44.9869 18.6108 41.0166C18.6108 37.0462 21.8293 33.8278 25.7996 33.8278C29.7697 33.8278 32.9882 37.046 32.9884 41.0161C32.9838 44.9846 29.768 48.2006 25.7996 48.2053ZM41.2557 38.3082C39.7567 40.1782 37.0349 40.5993 34.7489 40.3636C34.3939 35.4211 30.0995 31.7023 25.1569 32.0573C20.702 32.3772 17.1609 35.9251 16.8494 40.3806C14.6177 40.5758 11.9694 40.1297 10.5099 38.3082C8.98107 36.3374 9.14215 33.5405 10.8873 31.7583C12.6403 30.173 15.2759 29.4138 16.804 27.0414C18.1418 24.9649 18.3839 22.5271 19.6148 20.7306C21.1614 18.4711 24.2064 18.1339 25.8836 18.1339C29.063 18.1339 31.2192 19.0045 32.292 20.7227C33.4661 22.6014 33.5698 25.1557 35.0428 27.2639C37.0317 30.109 39.2649 30.2993 40.8777 31.7575C42.6232 33.5399 42.7846 36.3371 41.2557 38.3082Z" fill="#000309"/>
</g>
<defs>
<clipPath id="clip0_6758_2573">
<rect width="50" height="50" fill="white" transform="translate(0.799805)"/>
</clipPath>
</defs>
</svg>
