<svg width="38" height="25" viewBox="0 0 38 25" fill="none" xmlns="http://www.w3.org/2000/svg">
<g clip-path="url(#clip0_6701_2110)">
<path opacity="0.07" d="M35 0.777344H3C1.3 0.777344 0 2.07734 0 3.77734V21.7773C0 23.4773 1.4 24.7773 3 24.7773H35C36.7 24.7773 38 23.4773 38 21.7773V3.77734C38 2.07734 36.6 0.777344 35 0.777344Z" fill="black"/>
<path d="M35.889 0.777344C37.05 0.777344 38 1.75934 38 2.95934V22.5953C38 23.7953 37.05 24.7773 35.889 24.7773H2.11C0.95 24.7773 0 23.7953 0 22.5953V2.95934C0 1.75934 0.95 0.777344 2.111 0.777344H35.889Z" fill="#5A31F4"/>
<path d="M9.35001 12.1453C8.33301 11.9223 7.88001 11.8353 7.88001 11.4403C7.88001 11.0683 8.18601 10.8823 8.80001 10.8823C9.34001 10.8823 9.73401 11.1203 10.025 11.5863C10.0353 11.6036 10.0517 11.6164 10.0711 11.622C10.0904 11.6275 10.1111 11.6255 10.129 11.6163L11.275 11.0323C11.2848 11.0271 11.2934 11.02 11.3003 11.0114C11.3072 11.0028 11.3123 10.9928 11.3153 10.9822C11.3183 10.9715 11.3191 10.9604 11.3177 10.9494C11.3163 10.9384 11.3126 10.9279 11.307 10.9183C10.832 10.0873 9.95401 9.63234 8.79701 9.63234C7.27701 9.63234 6.33301 10.3873 6.33301 11.5883C6.33301 12.8633 7.48301 13.1853 8.50301 13.4083C9.52301 13.6303 9.97701 13.7183 9.97701 14.1133C9.97701 14.5093 9.64501 14.6953 8.98401 14.6953C8.37201 14.6953 7.91901 14.4133 7.64401 13.8653C7.63438 13.8466 7.61774 13.8324 7.59771 13.8258C7.57767 13.8193 7.55586 13.8209 7.53701 13.8303L6.39401 14.4003C6.37461 14.4104 6.35995 14.4277 6.35321 14.4484C6.34647 14.4692 6.34819 14.4918 6.35801 14.5113C6.81201 15.4313 7.74201 15.9483 8.98501 15.9483C10.568 15.9483 11.524 15.2063 11.524 13.9683C11.524 12.7303 10.369 12.3703 9.35101 12.1483L9.35001 12.1453ZM15.49 9.63234C14.84 9.63234 14.266 9.86434 13.854 10.2783C13.8484 10.2843 13.841 10.2884 13.8329 10.2901C13.8249 10.2917 13.8165 10.2908 13.809 10.2876C13.8014 10.2843 13.7951 10.2788 13.7908 10.2717C13.7865 10.2647 13.7845 10.2566 13.785 10.2483V7.60834C13.7851 7.59775 13.7832 7.58724 13.7792 7.57742C13.7752 7.5676 13.7694 7.55866 13.7619 7.55113C13.7545 7.54359 13.7456 7.53761 13.7359 7.53353C13.7261 7.52945 13.7156 7.52734 13.705 7.52734H12.27C12.2593 7.52734 12.2488 7.52947 12.2389 7.53362C12.2291 7.53776 12.2202 7.54384 12.2127 7.55148C12.2053 7.55912 12.1994 7.56818 12.1955 7.57811C12.1916 7.58805 12.1897 7.59867 12.19 7.60934V15.8033C12.1897 15.814 12.1916 15.8246 12.1955 15.8346C12.1994 15.8445 12.2053 15.8536 12.2127 15.8612C12.2202 15.8689 12.2291 15.8749 12.2389 15.8791C12.2488 15.8832 12.2593 15.8853 12.27 15.8853H13.703C13.7138 15.8855 13.7244 15.8834 13.7344 15.8794C13.7444 15.8753 13.7534 15.8692 13.7609 15.8616C13.7685 15.8539 13.7744 15.8448 13.7784 15.8348C13.7824 15.8248 13.7843 15.8141 13.784 15.8033V12.2093C13.784 11.5143 14.312 10.9823 15.023 10.9823C15.733 10.9823 16.249 11.5033 16.249 12.2093V15.8033C16.2487 15.8141 16.2506 15.8248 16.2546 15.8348C16.2586 15.8448 16.2645 15.8539 16.2721 15.8616C16.2796 15.8692 16.2887 15.8753 16.2986 15.8794C16.3086 15.8834 16.3192 15.8855 16.33 15.8853H17.763C17.7738 15.8855 17.7844 15.8834 17.7944 15.8794C17.8044 15.8753 17.8134 15.8692 17.8209 15.8616C17.8285 15.8539 17.8344 15.8448 17.8384 15.8348C17.8424 15.8248 17.8443 15.8141 17.844 15.8033V12.2093C17.844 10.6993 16.864 9.63234 15.49 9.63234ZM20.753 9.39734C19.975 9.39734 19.246 9.63734 18.723 9.98534C18.7055 9.99667 18.6929 10.0142 18.6879 10.0345C18.6829 10.0547 18.6858 10.0762 18.696 10.0943L19.328 11.1823C19.3332 11.1916 19.3402 11.1997 19.3485 11.2063C19.3569 11.2128 19.3665 11.2176 19.3767 11.2204C19.387 11.2232 19.3977 11.2239 19.4082 11.2225C19.4187 11.2211 19.4288 11.2177 19.438 11.2123C19.8348 10.9702 20.2912 10.8434 20.756 10.8463C22.006 10.8463 22.926 11.7373 22.926 12.9143C22.926 13.9173 22.19 14.6593 21.257 14.6593C20.497 14.6593 19.969 14.2133 19.969 13.5823C19.969 13.2213 20.121 12.9253 20.517 12.7163C20.5268 12.7113 20.5355 12.7044 20.5425 12.6958C20.5495 12.6873 20.5547 12.6774 20.5577 12.6668C20.5607 12.6562 20.5615 12.6451 20.56 12.6342C20.5585 12.6233 20.5548 12.6128 20.549 12.6033L19.953 11.5853C19.9435 11.5688 19.9284 11.5562 19.9105 11.5497C19.8925 11.5433 19.8728 11.5435 19.855 11.5503C19.056 11.8493 18.496 12.5683 18.496 13.5343C18.496 14.9943 19.648 16.0843 21.256 16.0843C23.133 16.0843 24.483 14.7713 24.483 12.8893C24.483 10.8713 22.913 9.39734 20.753 9.39734ZM28.675 9.62034C27.951 9.62034 27.302 9.89034 26.83 10.3663C26.804 10.3933 26.761 10.3733 26.761 10.3373V9.76534C26.7613 9.75467 26.7594 9.74405 26.7555 9.73411C26.7516 9.72418 26.7458 9.71512 26.7383 9.70748C26.7308 9.69984 26.7219 9.69376 26.7121 9.68962C26.7023 9.68547 26.6917 9.68334 26.681 9.68334H25.284C25.2733 9.68334 25.2628 9.68547 25.2529 9.68962C25.2431 9.69376 25.2342 9.69984 25.2267 9.70748C25.2193 9.71512 25.2134 9.72418 25.2095 9.73411C25.2056 9.74405 25.2037 9.75467 25.204 9.76534V17.9473C25.2039 17.9579 25.2058 17.9684 25.2098 17.9783C25.2138 17.9881 25.2196 17.997 25.2271 18.0046C25.2345 18.0121 25.2434 18.0181 25.2532 18.0222C25.2629 18.0262 25.2734 18.0283 25.284 18.0283H26.717C26.7277 18.0285 26.7383 18.0265 26.7482 18.0225C26.7581 18.0184 26.767 18.0125 26.7746 18.0049C26.7821 17.9974 26.7881 17.9884 26.7921 17.9785C26.7961 17.9686 26.7981 17.958 26.798 17.9473V15.2643C26.798 15.2283 26.841 15.2103 26.867 15.2343C27.3569 15.6921 28.0046 15.9428 28.675 15.9343C30.357 15.9343 31.668 14.5613 31.668 12.7773C31.668 10.9933 30.355 9.62034 28.675 9.62034ZM28.404 14.5493C27.448 14.5493 26.723 13.7813 26.723 12.7663C26.723 11.7513 27.446 10.9833 28.404 10.9833C29.362 10.9833 30.084 11.7383 30.084 12.7663C30.084 13.7933 29.372 14.5493 28.404 14.5493Z" fill="white"/>
</g>
<defs>
<clipPath id="clip0_6701_2110">
<rect width="38" height="24" fill="white" transform="translate(0 0.777344)"/>
</clipPath>
</defs>
</svg>
