<svg width="92" height="16" viewBox="0 0 92 16" fill="none" xmlns="http://www.w3.org/2000/svg">
<path d="M8 0.169922L10.472 5.17792L16 5.98592L12 9.88192L12.944 15.3859L8 12.7859L3.056 15.3859L4 9.88192L0 5.98592L5.528 5.17792L8 0.169922Z" fill="#000309"/>
<path d="M27 0.169922L29.472 5.17792L35 5.98592L31 9.88192L31.944 15.3859L27 12.7859L22.056 15.3859L23 9.88192L19 5.98592L24.528 5.17792L27 0.169922Z" fill="#000309"/>
<path d="M46 0.169922L48.472 5.17792L54 5.98592L50 9.88192L50.944 15.3859L46 12.7859L41.056 15.3859L42 9.88192L38 5.98592L43.528 5.17792L46 0.169922Z" fill="#000309"/>
<path d="M65 0.169922L67.472 5.17792L73 5.98592L69 9.88192L69.944 15.3859L65 12.7859L60.056 15.3859L61 9.88192L57 5.98592L62.528 5.17792L65 0.169922Z" fill="#000309"/>
<path d="M84 0.169922L86.472 5.17792L92 5.98592L88 9.88192L88.944 15.3859L84 12.7859L79.056 15.3859L80 9.88192L76 5.98592L81.528 5.17792L84 0.169922Z" fill="#000309"/>
</svg>
