<svg width="38" height="25" viewBox="0 0 38 25" fill="none" xmlns="http://www.w3.org/2000/svg">
<g clip-path="url(#clip0_6701_2114)">
<path opacity="0.07" d="M35 0.777344H3C1.3 0.777344 0 2.07734 0 3.77734V21.7773C0 23.4773 1.4 24.7773 3 24.7773H35C36.7 24.7773 38 23.4773 38 21.7773V3.77734C38 2.07734 36.6 0.777344 35 0.777344Z" fill="black"/>
<path d="M35 1.77734C36.1 1.77734 37 2.67734 37 3.77734V21.7773C37 22.8773 36.1 23.7773 35 23.7773H3C1.9 23.7773 1 22.8773 1 21.7773V3.77734C1 2.67734 1.9 1.77734 3 1.77734H35Z" fill="white"/>
<path d="M28.3 10.8773H28C27.6 11.8773 27.3 12.3773 27 13.8773H28.9C28.6 12.3773 28.6 11.6773 28.3 10.8773ZM31.2 16.7773H29.5C29.4 16.7773 29.4 16.7773 29.3 16.6773L29.1 15.7773L29 15.5773H26.6C26.5 15.5773 26.4 15.5773 26.4 15.7773L26.1 16.6773C26.1 16.7773 26 16.7773 26 16.7773H23.9L24.1 16.2773L27 9.47734C27 8.97734 27.3 8.77734 27.8 8.77734H29.3C29.4 8.77734 29.5 8.77734 29.5 8.97734L30.9 15.4773C31 15.8773 31.1 16.1773 31.1 16.5773C31.2 16.6773 31.2 16.6773 31.2 16.7773ZM17.8 16.4773L18.2 14.6773C18.3 14.6773 18.4 14.7773 18.4 14.7773C19.1 15.0773 19.8 15.2773 20.5 15.1773C20.7 15.1773 21 15.0773 21.2 14.9773C21.7 14.7773 21.7 14.2773 21.3 13.8773C21.1 13.6773 20.8 13.5773 20.5 13.3773C20.1 13.1773 19.7 12.9773 19.4 12.6773C18.2 11.6773 18.6 10.2773 19.3 9.57734C19.9 9.17734 20.2 8.77734 21 8.77734C22.2 8.77734 23.5 8.77734 24.1 8.97734H24.2C24.1 9.57734 24 10.0773 23.8 10.6773C23.3 10.4773 22.8 10.2773 22.3 10.2773C22 10.2773 21.7 10.2773 21.4 10.3773C21.2 10.3773 21.1 10.4773 21 10.5773C20.8 10.7773 20.8 11.0773 21 11.2773L21.5 11.6773C21.9 11.8773 22.3 12.0773 22.6 12.2773C23.1 12.5773 23.6 13.0773 23.7 13.6773C23.9 14.5773 23.6 15.3773 22.8 15.9773C22.3 16.3773 22.1 16.5773 21.4 16.5773C20 16.5773 18.9 16.6773 18 16.3773C17.9 16.5773 17.9 16.5773 17.8 16.4773ZM14.3 16.7773C14.4 16.0773 14.4 16.0773 14.5 15.7773C15 13.5773 15.5 11.2773 15.9 9.07734C16 8.87734 16 8.77734 16.2 8.77734H18C17.8 9.97734 17.6 10.8773 17.3 11.9773C17 13.4773 16.7 14.9773 16.3 16.4773C16.3 16.6773 16.2 16.6773 16 16.6773M5 8.97734C5 8.87734 5.2 8.77734 5.3 8.77734H8.7C9.2 8.77734 9.6 9.07734 9.7 9.57734L10.6 13.9773C10.6 14.0773 10.6 14.0773 10.7 14.1773C10.7 14.0773 10.8 14.0773 10.8 14.0773L12.9 8.97734C12.8 8.87734 12.9 8.77734 13 8.77734H15.1C15.1 8.87734 15.1 8.87734 15 8.97734L11.9 16.2773C11.8 16.4773 11.8 16.5773 11.7 16.6773C11.6 16.7773 11.4 16.6773 11.2 16.6773H9.7C9.6 16.6773 9.5 16.6773 9.5 16.4773L7.9 10.2773C7.7 10.0773 7.4 9.77734 7 9.67734C6.4 9.37734 5.3 9.17734 5.1 9.17734L5 8.97734Z" fill="#142688"/>
</g>
<defs>
<clipPath id="clip0_6701_2114">
<rect width="38" height="24" fill="white" transform="translate(0 0.777344)"/>
</clipPath>
</defs>
</svg>
